REM DIRINDEX 1\2,1\3,1\4,1\6,1\5\7,1\5\8
REM DIRNAME cjc114,folder01,folder02,folder03,folder04,folder05,folder06,folder07
TITLE ""
FILE "DB4500_5th_6C_45.mp3" MP3
  TRACK 01 AUDIO
    TITLE "0:"
    INDEX 01 00:00:00
  TRACK 02 AUDIO
    TITLE "2:cjc114_4896"
    INDEX 01 00:00:03
  TRACK 03 AUDIO
    TITLE "0:"
    INDEX 01 00:01:05
  TRACK 04 AUDIO
    TITLE "3:cjc114_4897"
    INDEX 01 00:01:28
  TRACK 05 AUDIO
    TITLE "0:"
    INDEX 01 00:02:40
  TRACK 06 AUDIO
    TITLE "4:cjc114_4898"
    INDEX 01 00:02:65
  TRACK 07 AUDIO
    TITLE "0:"
    INDEX 01 00:05:65
  TRACK 08 AUDIO
    TITLE "4:cjc114_4899"
    INDEX 01 00:06:37
  TRACK 09 AUDIO
    TITLE "0:"
    INDEX 01 00:09:38
  TRACK 10 AUDIO
    TITLE "2:cjc114_4900"
    INDEX 01 00:10:12
  TRACK 11 AUDIO
    TITLE "0:"
    INDEX 01 00:11:23
  TRACK 12 AUDIO
    TITLE "3:cjc114_4901"
    INDEX 01 00:11:46
  TRACK 13 AUDIO
    TITLE "0:"
    INDEX 01 00:12:52
  TRACK 14 AUDIO
    TITLE "4:cjc114_4902"
    INDEX 01 00:13:00
  TRACK 15 AUDIO
    TITLE "0:"
    INDEX 01 00:16:06
  TRACK 16 AUDIO
    TITLE "2:cjc114_4903"
    INDEX 01 00:16:53
  TRACK 17 AUDIO
    TITLE "0:"
    INDEX 01 00:18:09
  TRACK 18 AUDIO
    TITLE "3:cjc114_4904"
    INDEX 01 00:18:27
  TRACK 19 AUDIO
    TITLE "0:"
    INDEX 01 00:20:00
  TRACK 20 AUDIO
    TITLE "4:cjc114_4905"
    INDEX 01 00:20:24
  TRACK 21 AUDIO
    TITLE "0:"
    INDEX 01 00:23:63
  TRACK 22 AUDIO
    TITLE "2:cjc114_4906"
    INDEX 01 00:24:33
  TRACK 23 AUDIO
    TITLE "0:"
    INDEX 01 00:25:45
  TRACK 24 AUDIO
    TITLE "3:cjc114_4907"
    INDEX 01 00:25:68
  TRACK 25 AUDIO
    TITLE "0:"
    INDEX 01 00:27:00
  TRACK 26 AUDIO
    TITLE "4:cjc114_4908"
    INDEX 01 00:27:22
  TRACK 27 AUDIO
    TITLE "0:"
    INDEX 01 00:31:37
  TRACK 28 AUDIO
    TITLE "2:cjc114_4909"
    INDEX 01 00:32:11
  TRACK 29 AUDIO
    TITLE "0:"
    INDEX 01 00:33:32
  TRACK 30 AUDIO
    TITLE "3:cjc114_4910"
    INDEX 01 00:33:54
  TRACK 31 AUDIO
    TITLE "0:"
    INDEX 01 00:35:25
  TRACK 32 AUDIO
    TITLE "4:cjc114_4911"
    INDEX 01 00:35:47
  TRACK 33 AUDIO
    TITLE "0:"
    INDEX 01 00:38:57
  TRACK 34 AUDIO
    TITLE "2:cjc114_4912"
    INDEX 01 00:39:27
  TRACK 35 AUDIO
    TITLE "0:"
    INDEX 01 00:42:08
  TRACK 36 AUDIO
    TITLE "3:cjc114_4913"
    INDEX 01 00:42:31
  TRACK 37 AUDIO
    TITLE "0:"
    INDEX 01 00:43:42
  TRACK 38 AUDIO
    TITLE "4:cjc114_4914"
    INDEX 01 00:43:64
  TRACK 39 AUDIO
    TITLE "0:"
    INDEX 01 00:46:47
  TRACK 40 AUDIO
    TITLE "2:cjc114_4915"
    INDEX 01 00:47:19
  TRACK 41 AUDIO
    TITLE "0:"
    INDEX 01 00:48:40
  TRACK 42 AUDIO
    TITLE "3:cjc114_4916"
    INDEX 01 00:48:61
  TRACK 43 AUDIO
    TITLE "0:"
    INDEX 01 00:50:15
  TRACK 44 AUDIO
    TITLE "4:cjc114_4917"
    INDEX 01 00:50:39
  TRACK 45 AUDIO
    TITLE "0:"
    INDEX 01 00:53:06
  TRACK 46 AUDIO
    TITLE "2:cjc114_4918"
    INDEX 01 00:53:55
  TRACK 47 AUDIO
    TITLE "0:"
    INDEX 01 00:54:62
  TRACK 48 AUDIO
    TITLE "3:cjc114_4919"
    INDEX 01 00:55:10
  TRACK 49 AUDIO
    TITLE "0:"
    INDEX 01 00:56:49
  TRACK 50 AUDIO
    TITLE "4:cjc114_4920"
    INDEX 01 00:56:71
  TRACK 51 AUDIO
    TITLE "0:"
    INDEX 01 01:00:66
  TRACK 52 AUDIO
    TITLE "2:cjc114_4921"
    INDEX 01 01:01:33
  TRACK 53 AUDIO
    TITLE "0:"
    INDEX 01 01:02:50
  TRACK 54 AUDIO
    TITLE "3:cjc114_4922"
    INDEX 01 01:02:71
  TRACK 55 AUDIO
    TITLE "0:"
    INDEX 01 01:04:21
  TRACK 56 AUDIO
    TITLE "4:cjc114_4923"
    INDEX 01 01:04:39
  TRACK 57 AUDIO
    TITLE "0:"
    INDEX 01 01:07:63
  TRACK 58 AUDIO
    TITLE "2:cjc114_4924"
    INDEX 01 01:08:35
  TRACK 59 AUDIO
    TITLE "0:"
    INDEX 01 01:09:38
  TRACK 60 AUDIO
    TITLE "3:cjc114_4925"
    INDEX 01 01:09:61
  TRACK 61 AUDIO
    TITLE "0:"
    INDEX 01 01:11:56
  TRACK 62 AUDIO
    TITLE "4:cjc114_4926"
    INDEX 01 01:11:74
  TRACK 63 AUDIO
    TITLE "0:"
    INDEX 01 01:15:35
  TRACK 64 AUDIO
    TITLE "2:cjc114_4927"
    INDEX 01 01:16:07
  TRACK 65 AUDIO
    TITLE "0:"
    INDEX 01 01:17:12
  TRACK 66 AUDIO
    TITLE "3:cjc114_4928"
    INDEX 01 01:17:32
  TRACK 67 AUDIO
    TITLE "0:"
    INDEX 01 01:18:64
  TRACK 68 AUDIO
    TITLE "4:cjc114_4929"
    INDEX 01 01:19:09
  TRACK 69 AUDIO
    TITLE "0:"
    INDEX 01 01:21:55
  TRACK 70 AUDIO
    TITLE "2:cjc114_4930"
    INDEX 01 01:22:21
  TRACK 71 AUDIO
    TITLE "0:"
    INDEX 01 01:23:38
  TRACK 72 AUDIO
    TITLE "3:cjc114_4931"
    INDEX 01 01:23:58
  TRACK 73 AUDIO
    TITLE "0:"
    INDEX 01 01:24:63
  TRACK 74 AUDIO
    TITLE "4:cjc114_4932"
    INDEX 01 01:25:08
  TRACK 75 AUDIO
    TITLE "0:"
    INDEX 01 01:28:72
  TRACK 76 AUDIO
    TITLE "2:cjc114_4933"
    INDEX 01 01:29:45
  TRACK 77 AUDIO
    TITLE "0:"
    INDEX 01 01:30:50
  TRACK 78 AUDIO
    TITLE "3:cjc114_4934"
    INDEX 01 01:30:69
  TRACK 79 AUDIO
    TITLE "0:"
    INDEX 01 01:32:04
  TRACK 80 AUDIO
    TITLE "4:cjc114_4935"
    INDEX 01 01:32:21
  TRACK 81 AUDIO
    TITLE "0:"
    INDEX 01 01:35:14
  TRACK 82 AUDIO
    TITLE "2:cjc114_4936"
    INDEX 01 01:35:55
  TRACK 83 AUDIO
    TITLE "0:"
    INDEX 01 01:36:60
  TRACK 84 AUDIO
    TITLE "3:cjc114_4937"
    INDEX 01 01:37:05
  TRACK 85 AUDIO
    TITLE "0:"
    INDEX 01 01:38:53
  TRACK 86 AUDIO
    TITLE "4:cjc114_4938"
    INDEX 01 01:39:00
  TRACK 87 AUDIO
    TITLE "0:"
    INDEX 01 01:41:48
